<?xml version="1.0" encoding="utf-8"?>
<!-- Generator: Adobe Illustrator 27.0.0, SVG Export Plug-In . SVG Version: 6.00 Build 0)  -->
<svg version="1.1" id="Ebene_2_00000031183872007610527550000016393072003758930598_"
	 xmlns="http://www.w3.org/2000/svg" xmlns:xlink="http://www.w3.org/1999/xlink" x="0px" y="0px" viewBox="0 0 340.2 340.2"
	 style="enable-background:new 0 0 340.2 340.2;" xml:space="preserve">
<style type="text/css">
	.st0{fill:#AEFF00;}
	.st1{fill:#00ABFF;}
	.st2{fill:#FF1ECC;}
	.st3{fill:#0000FF;}
	.st4{fill:#FF0000;}
	.st5{fill:#00CC00;}
	.st6{fill:#00DABC;}
	.st7{fill:#A400FF;}
	.st8{fill:#FF9000;}
	.st9{fill:#F166FF;}
	.st10{fill:#FFFF00;}
	.st11{fill:#66EAFF;}
	.st12{opacity:5.000000e-02;}
	.st13{fill:#FFFFFF;}
	.st14{opacity:0.9;}
	.st15{fill:#5E000A;}
	.st16{fill:#005C00;}
	.st17{fill:#00005E;}
</style>
<g>
	<g>
		<path class="st0" d="M340.1,170.1c0-25.7-22.8-48.7-58.7-64.3c-2.3,19.9-8,41.8-17,64.3c9,22.5,14.7,44.4,17,64.3
			C317.4,218.8,340.1,195.7,340.1,170.1z"/>
		<path class="st1" d="M85.1,22.8c-22.2,12.8-30.8,44.1-26.3,83c18.4-8,40.2-14,64.2-17.4c15-19,31.1-34.9,47.2-46.8
			C138.6,18.2,107.3,10,85.1,22.8z"/>
		<path class="st2" d="M85.1,317.4c22.2,12.8,53.5,4.6,85-18.7c-16.1-11.9-32.2-27.8-47.2-46.8c-24-3.5-45.8-9.5-64.2-17.4
			C54.3,273.3,62.8,304.5,85.1,317.4z"/>
	</g>
	<g>
		<path class="st3" d="M0,170.1c0-25.7,22.8-48.7,58.7-64.3c-4.5-39,4.1-70.2,26.3-83C30.5,54.3,0.1,111.4,0,170.1L0,170.1z"/>
		<path class="st4" d="M255.1,317.4c-22.2,12.8-53.5,4.6-85-18.7c-31.5,23.4-62.8,31.6-85,18.7C139.6,348.8,204.3,346.7,255.1,317.4
			L255.1,317.4z"/>
		<path class="st5" d="M255.1,22.8c22.2,12.8,30.8,44.1,26.3,83c36,15.6,58.7,38.6,58.7,64.3C340.1,107.1,305.9,52.2,255.1,22.8
			L255.1,22.8z"/>
	</g>
	<g>
		<path class="st6" d="M255.1,22.8c-22.2-12.8-53.5-4.6-85,18.7c16.1,11.9,32.2,27.8,47.2,46.8c24,3.5,45.8,9.5,64.1,17.4
			C285.9,66.9,277.3,35.6,255.1,22.8z"/>
		<path class="st7" d="M0,170.1c0,25.7,22.8,48.7,58.7,64.3c2.3-19.9,8-41.8,17-64.3c-9-22.5-14.7-44.4-17-64.3
			C22.8,121.4,0,144.4,0,170.1z"/>
		<path class="st8" d="M255.1,317.4c22.2-12.8,30.8-44,26.3-83c-18.4,8-40.2,14-64.1,17.4c-15,19.1-31.1,34.9-47.2,46.8
			C201.6,322,232.9,330.2,255.1,317.4z"/>
	</g>
	<g>
		<path class="st9" d="M85.1,317.4c-22.2-12.8-30.8-44-26.3-83C22.8,218.8,0,195.8,0,170.1C0,233,34.2,288,85.1,317.4L85.1,317.4z"
			/>
		<path class="st10" d="M340.1,170.1c0,25.7-22.8,48.7-58.7,64.3c4.5,39-4.1,70.2-26.3,83C309.6,285.9,340.1,228.8,340.1,170.1
			L340.1,170.1z"/>
		<path class="st11" d="M85.1,22.8c22.2-12.8,53.5-4.6,85,18.7c31.5-23.4,62.8-31.6,85-18.7C200.6-8.7,135.9-6.5,85.1,22.8
			L85.1,22.8z"/>
	</g>
	<g class="st12">
		<path class="st13" d="M264.4,170.1c-5.6,14.1-12.5,28.3-20.7,42.5s-17.1,27.3-26.4,39.2c24-3.5,45.8-9.5,64.1-17.4
			C279.1,214.5,273.4,192.6,264.4,170.1z"/>
		<path class="st13" d="M122.9,88.4c15-2.2,30.8-3.3,47.2-3.3c16.4,0,32.2,1.2,47.2,3.3c-15-19-31.1-34.9-47.2-46.8
			C154,53.4,137.9,69.3,122.9,88.4z"/>
		<path class="st13" d="M122.9,251.8c-9.4-11.9-18.3-25-26.5-39.2c-8.2-14.2-15.1-28.4-20.7-42.5c-9,22.5-14.7,44.4-17,64.3
			C77.1,242.3,98.9,248.3,122.9,251.8z"/>
	</g>
	<path d="M217.2,251.8c9.4-11.9,18.3-25,26.5-39.2s15.1-28.5,20.7-42.5c-5.6-14.1-12.5-28.3-20.7-42.5
		c-8.2-14.2-17.1-27.3-26.5-39.2c-15-2.2-30.8-3.3-47.2-3.3c-16.4,0-32.2,1.2-47.2,3.3c-9.4,11.9-18.3,25-26.5,39.2
		c-8.2,14.2-15.1,28.5-20.7,42.5c5.6,14.1,12.5,28.3,20.7,42.5c8.2,14.2,17.1,27.3,26.5,39.2c15,2.2,30.8,3.3,47.2,3.3
		C186.4,255.1,202.3,253.9,217.2,251.8z"/>
	<g class="st14">
		<path class="st15" d="M217.2,251.8c-15,2.2-30.8,3.3-47.2,3.3s-32.2-1.2-47.2-3.3c15,19,31.1,34.9,47.2,46.8
			C186.1,286.7,202.3,270.8,217.2,251.8z"/>
		<path class="st16" d="M217.3,88.4c9.4,11.9,18.3,25,26.5,39.2c8.2,14.2,15.1,28.5,20.7,42.5c9-22.5,14.7-44.4,17-64.3
			C263,97.8,241.2,91.8,217.3,88.4z"/>
		<path class="st17" d="M75.7,170.1c5.6-14.1,12.5-28.3,20.7-42.5s17.1-27.3,26.4-39.2c-24,3.5-45.8,9.5-64.1,17.4
			C61,125.7,66.7,147.6,75.7,170.1z"/>
	</g>
</g>
</svg>
